<?xml version="1.0" encoding="utf-8"?>
<!-- Uploaded to: SVG Repo, www.svgrepo.com, Generator: SVG Repo Mixer Tools -->
<svg fill="#000000" width="800px" height="800px" viewBox="0 0 32 32" version="1.1" xmlns="http://www.w3.org/2000/svg">
<title>icq</title>
<path d="M11.439 18.548c-0.497 0.001-0.961 0.14-1.356 0.381l0.011-0.007-4.016 2.098 0.008 0.004c-1.682 0.911-2.804 2.663-2.804 4.677 0 2.928 2.374 5.302 5.302 5.302 2.893 0 5.244-2.316 5.301-5.195l0-0.005 0.135-4.311c0.015-0.104 0.023-0.224 0.023-0.346 0-1.435-1.163-2.598-2.598-2.598-0.001 0-0.001 0-0.002 0h0zM18.374 18.448c-0.002 0-0.003 0-0.005 0-1.302 0-2.357 1.055-2.357 2.357 0 0.153 0.015 0.303 0.043 0.448l-0.002-0.015 0.484 4.078 0.006-0.004c0.317 2.376 2.331 4.19 4.768 4.19 2.655 0 4.808-2.153 4.808-4.808 0-2.017-1.242-3.744-3.004-4.458l-0.032-0.012-3.595-1.496c-0.322-0.176-0.705-0.28-1.112-0.281h-0zM5.486 10.054c-2.165 0.015-3.914 1.773-3.914 3.94 0 2.176 1.764 3.94 3.94 3.94 0.377 0 0.741-0.053 1.086-0.151l-0.028 0.007 3.173-0.921c0.902-0.174 1.575-0.957 1.575-1.898 0-0.573-0.249-1.087-0.646-1.441l-0.002-0.002-2.429-2.379v0.006c-0.703-0.681-1.663-1.101-2.721-1.101-0.012 0-0.024 0-0.035 0h0.002zM25.2 6.623c-0.029-0.001-0.062-0.001-0.096-0.001-1.733 0-3.272 0.83-4.242 2.114l-0.010 0.013-2.767 3.545c-0.031 0.040-0.062 0.079-0.092 0.12l-0.012 0.015c-0.311 0.424-0.497 0.956-0.497 1.532 0 1.361 1.043 2.479 2.373 2.599l0.010 0.001 4.516 0.67-0.004-0.009c0.216 0.031 0.466 0.049 0.719 0.049 2.941 0 5.325-2.384 5.325-5.325 0-2.905-2.326-5.267-5.218-5.324l-0.005-0zM13.737 1.004c-2.578 0.043-4.652 2.143-4.652 4.728 0 1.003 0.312 1.933 0.845 2.698l-0.010-0.015 2.176 3.202c0.399 0.734 1.164 1.224 2.044 1.224 0.943 0 1.755-0.563 2.117-1.372l0.006-0.015 1.817-3.66h-0.008c0.298-0.602 0.473-1.311 0.473-2.061 0-2.612-2.117-4.729-4.729-4.729-0.027 0-0.055 0-0.082 0.001l0.004-0z"></path>
</svg>